<?xml version="1.0" encoding="utf-8"?>
<!-- Generator: Adobe Illustrator 28.0.0, SVG Export Plug-In . SVG Version: 6.00 Build 0)  -->
<svg version="1.1" id="Layer_1" xmlns="http://www.w3.org/2000/svg" xmlns:xlink="http://www.w3.org/1999/xlink" x="0px" y="0px"
	 viewBox="0 0 1000 1000" style="enable-background:new 0 0 1000 1000;" xml:space="preserve">
<style type="text/css">
	.st0{fill:#D42527;}
	.st1{fill:#FFFFFF;}
	.st2{fill:#0069A5;}
	.st3{fill:#E5E6E6;}
	.st4{fill-rule:evenodd;clip-rule:evenodd;fill:url(#SVGID_1_);}
	.st5{fill-rule:evenodd;clip-rule:evenodd;fill:url(#SVGID_00000088834997687318552380000000044101653574109615_);}
	.st6{fill-rule:evenodd;clip-rule:evenodd;fill:url(#SVGID_00000044159016783568845700000009911580738391234966_);}
	.st7{fill:#E9E9EB;}
	.st8{fill:#FFFFFF;filter:url(#Adobe_OpacityMaskFilter);}
	.st9{mask:url(#mask0_169_10726_00000153689780796563773980000000897409627483712133_);}
	.st10{fill:url(#SVGID_00000122720978778973317180000000206367171077695105_);}
	.st11{fill:#FFFFFF;filter:url(#Adobe_OpacityMaskFilter_00000145759221696233183920000006183466786660542118_);}
	.st12{mask:url(#mask1_169_10726_00000181782748199436454160000007774936155619330235_);}
	.st13{fill:url(#SVGID_00000093134864407981318530000010719934622715879570_);}
	.st14{fill:#2D368F;}
	.st15{fill:#FFFFFF;filter:url(#Adobe_OpacityMaskFilter_00000107581562538943953240000003416530143327764608_);}
	.st16{mask:url(#mask2_169_10726_00000117667077016611757760000016803558775923608244_);}
	.st17{fill:url(#SVGID_00000031191745568293362620000014040849238695114417_);}
	.st18{fill:#FFFFFF;filter:url(#Adobe_OpacityMaskFilter_00000080907575078714193260000004312109324239606689_);}
	.st19{mask:url(#mask3_169_10726_00000031202773786044063940000016693353973607151795_);}
	.st20{fill:url(#SVGID_00000166660449646113518340000011991504190198467241_);}
	.st21{fill:#C4C4C4;}
	.st22{fill:#8FC856;}
	.st23{fill:#FFFFFF;filter:url(#Adobe_OpacityMaskFilter_00000183938072489583898560000006048104813640438711_);}
	.st24{mask:url(#mask0_77_2339_00000067937604108357125100000017969493254922494382_);}
	.st25{fill:#74BD54;}
	.st26{fill:#3E8E47;}
	.st27{fill-rule:evenodd;clip-rule:evenodd;fill:#3E8E47;}
	.st28{fill:#DFDFDE;}
	.st29{fill-rule:evenodd;clip-rule:evenodd;fill:#DFDFDE;}
	.st30{fill:#C5C6C7;}
	.st31{fill-rule:evenodd;clip-rule:evenodd;fill:#4AA4C5;}
	.st32{fill:#21BBE9;}
	.st33{fill:#FFDD00;}
	.st34{fill:#EA1C67;}
	.st35{opacity:0.6;}
	.st36{fill:#FFFFFF;filter:url(#Adobe_OpacityMaskFilter_00000088855750208237441110000011269260898347604352_);}
	.st37{mask:url(#mask0_77_3162_00000078004541742136011500000007623877152916304031_);}
	.st38{fill:#231F20;}
	.st39{fill:#262122;}
	.st40{fill:#262223;}
	.st41{fill:#282424;}
	.st42{fill:#292627;}
	.st43{fill:#2B2728;}
	.st44{fill:#2D292A;}
	.st45{fill:#2E2A2B;}
	.st46{fill:#302C2D;}
	.st47{fill:#312E2F;}
	.st48{fill:#342F30;}
	.st49{fill:#353132;}
	.st50{fill:#363333;}
	.st51{fill:#383435;}
	.st52{fill:#393637;}
	.st53{fill:#3B3839;}
	.st54{fill:#3C3A3B;}
	.st55{fill:#3E3B3C;}
	.st56{fill:#3F3C3D;}
	.st57{fill:#413D3E;}
	.st58{fill:#444142;}
	.st59{fill:#454242;}
	.st60{fill:#464445;}
	.st61{fill:#484647;}
	.st62{fill:#4A4546;}
	.st63{fill:#4B494B;}
	.st64{fill:#4E494B;}
	.st65{fill:#4F4B4D;}
	.st66{fill:#4F4C4D;}
	.st67{fill:#514F4F;}
	.st68{fill:#545050;}
	.st69{fill:#535151;}
	.st70{fill:#565354;}
	.st71{fill:#575455;}
	.st72{fill:#595859;}
	.st73{fill:#5B585A;}
	.st74{fill:#5D5B5B;}
	.st75{fill:#5E5B5D;}
	.st76{fill:#5F5E5E;}
	.st77{fill:#605E60;}
	.st78{fill:#616160;}
	.st79{fill:#646162;}
	.st80{fill:#656364;}
	.st81{fill:#666566;}
	.st82{fill:#686566;}
	.st83{fill:#6B6868;}
	.st84{fill:#6B6969;}
	.st85{fill:#6D6B6D;}
	.st86{fill:#6F6C6D;}
	.st87{fill:#706E6E;}
	.st88{fill:#716E70;}
	.st89{fill:#727172;}
	.st90{fill:#767374;}
	.st91{fill:#777374;}
	.st92{fill:#777676;}
	.st93{fill:#797778;}
	.st94{fill:#7B7778;}
	.st95{fill:#7B7878;}
	.st96{fill:#7D7B7D;}
	.st97{fill:#7D7B7C;}
	.st98{fill:#7F7E7E;}
	.st99{fill:#807F80;}
	.st100{fill:#80807F;}
	.st101{fill:#818080;}
	.st102{fill:#838182;}
	.st103{fill:#838282;}
	.st104{fill:#848385;}
	.st105{fill:#888586;}
	.st106{fill:#888686;}
	.st107{fill:#898689;}
	.st108{fill:#8C888A;}
	.st109{fill:#8C8C8C;}
	.st110{fill:#8D8C8C;}
	.st111{fill:#908D8D;}
	.st112{fill:#908D8F;}
	.st113{fill:#918F8F;}
	.st114{fill:#939090;}
	.st115{fill:#949293;}
	.st116{fill:#949294;}
	.st117{fill:#959494;}
	.st118{fill:#969594;}
	.st119{fill:#969695;}
	.st120{fill:#989798;}
	.st121{fill:#999999;}
	.st122{fill:#9A9A98;}
	.st123{fill:#9C9999;}
	.st124{fill:#9E9E9F;}
	.st125{fill:#A19F9F;}
	.st126{fill:#A29FA0;}
	.st127{fill:#A2A1A1;}
	.st128{fill:#A4A2A2;}
	.st129{fill:#A6A3A3;}
	.st130{fill:#A7A6A6;}
	.st131{fill:#ABA8A9;}
	.st132{fill:#AAAAAA;}
	.st133{fill:#ACABAB;}
	.st134{fill:#AEACAC;}
	.st135{fill:#AEADAD;}
	.st136{fill:#AFADAD;}
	.st137{fill:#B1AFB0;}
	.st138{fill:#B2B0B1;}
	.st139{fill:#B3B1B2;}
	.st140{fill:#B4B2B3;}
	.st141{fill:#B4B4B4;}
	.st142{fill:#B4B4B5;}
	.st143{fill:#B5B5B6;}
	.st144{fill:#B8B6B6;}
	.st145{fill:#B9B8B8;}
	.st146{fill:#B8B8B9;}
	.st147{fill:#BBB9B9;}
	.st148{fill:#BBBABA;}
	.st149{fill:#BCBBBB;}
	.st150{fill:#BFBCBB;}
	.st151{fill:#C0BDBD;}
	.st152{fill:#C0BEBE;}
	.st153{fill:#C2C1BF;}
	.st154{fill:#C2C1C0;}
	.st155{fill:#C2C1C1;}
	.st156{fill:#C3C1C1;}
	.st157{fill:#C6C3C2;}
	.st158{fill:#C6C4C3;}
	.st159{fill:#C6C5C5;}
	.st160{fill:#C9C6C6;}
	.st161{fill:#C9C8C7;}
	.st162{fill:#C9C8C9;}
	.st163{fill:#CAC9CA;}
	.st164{fill:#CDCACA;}
	.st165{fill:#CDCDCD;}
	.st166{fill:#CCCDCE;}
	.st167{fill:#CDCDCE;}
	.st168{fill:#D0CECF;}
	.st169{fill:#D1D0D0;}
	.st170{fill:#D2D0CF;}
	.st171{fill:#D2D2D2;}
	.st172{fill:#D4D2D1;}
	.st173{fill:#D4D3D3;}
	.st174{fill:#D5D4D3;}
	.st175{fill:#D4D4D6;}
	.st176{fill:#D7D7D5;}
	.st177{fill:#D7D7D7;}
	.st178{fill:#D7D7D6;}
	.st179{fill:#DBD9D8;}
	.st180{fill:#DBD9DA;}
	.st181{fill:#DBDBD9;}
	.st182{fill:#DBDADB;}
	.st183{fill:#DCDCDB;}
	.st184{fill:#DFDDDC;}
	.st185{fill:#DFDDDD;}
	.st186{fill:#DFDFDF;}
	.st187{fill:#E0E0E0;}
	.st188{fill:#E3E2E1;}
	.st189{fill:#E3E4E2;}
	.st190{fill:#E4E2E4;}
	.st191{fill:#E4E4E4;}
	.st192{fill:#E7E5E5;}
	.st193{fill:#E7E6E6;}
	.st194{fill:#E7E8E7;}
	.st195{fill:#E8E7E6;}
	.st196{fill:#E8E8E9;}
	.st197{fill:#EBEAEA;}
	.st198{fill:#EBEAEB;}
	.st199{fill:#EBEBEB;}
	.st200{fill:#EFECEC;}
	.st201{fill:#EEECED;}
	.st202{fill:#EFEFEF;}
	.st203{fill:#F0EFF0;}
	.st204{fill:#F0EFEF;}
	.st205{fill:#F1F1F1;}
	.st206{fill:#F3F1F2;}
	.st207{fill:#F3F4F5;}
	.st208{fill:#F3F2F4;}
	.st209{fill:#F4F5F5;}
	.st210{fill:#F7F7F7;}
	.st211{fill:#F7F7F8;}
	.st212{fill:#F7F8F9;}
	.st213{fill:#F9FCFF;}
	.st214{opacity:0.75;fill:url(#SVGID_00000002376017636030314560000000868385352391060119_);enable-background:new    ;}
	.st215{opacity:0.75;fill:url(#SVGID_00000072280267905007088680000008570548488475037102_);enable-background:new    ;}
	.st216{fill-rule:evenodd;clip-rule:evenodd;fill:#EA1C67;}
	
		.st217{opacity:0.6;fill-rule:evenodd;clip-rule:evenodd;fill:url(#SVGID_00000133527652965077682150000001476330972530780037_);enable-background:new    ;}
	.st218{fill-rule:evenodd;clip-rule:evenodd;fill:#FFFFFF;}
	.st219{opacity:0.75;fill:url(#SVGID_00000088106228238303432020000011895693767742555579_);enable-background:new    ;}
	.st220{fill:#65318E;}
	.st221{opacity:0.5;enable-background:new    ;}
	.st222{fill-rule:evenodd;clip-rule:evenodd;fill:#D31920;}
	.st223{fill:#D31920;}
	.st224{fill:#7D1318;}
	.st225{fill-rule:evenodd;clip-rule:evenodd;fill:#7D1318;}
	.st226{fill:#ED1C24;}
	.st227{fill:#C0262D;}
	.st228{fill:#EC1C24;}
	.st229{fill:#9A1F24;}
	.st230{fill-rule:evenodd;clip-rule:evenodd;fill:#EC1C24;}
	.st231{fill:#01B3B4;}
	.st232{fill:#8F8F8F;}
	.st233{fill:#E07A33;}
	.st234{fill-rule:evenodd;clip-rule:evenodd;fill:#8F8F8F;}
	.st235{fill:#ED174F;}
	.st236{fill:#D71F26;}
	.st237{fill:#BA2F7E;}
	.st238{fill-rule:evenodd;clip-rule:evenodd;}
	.st239{fill:#F48120;}
	.st240{fill:#522EE8;}
</style>
<g>
	<path class="st1" d="M536.4,468.7c0,0-31.5,28.4-80.1,43.2h114v-43.2H536.4z"/>
	<path class="st1" d="M469.4,378.5h-43c0,0,4-71.9,74.6-71.9c0,0,45.1,0,61.7,34.5c0,0-26.4-1.8-54.2,9.3
		C508.5,350.4,479.3,338.4,469.4,378.5L469.4,378.5z"/>
	<path class="st1" d="M501.9,284.2c-79.9,0-144.6,61.7-144.6,141.6c0,43.7,35.1,68.3,35.1,45.2c0-79.9,64.7-144.6,144.6-144.6
		C573.1,326.4,558.6,284.2,501.9,284.2z"/>
	<path class="st1" d="M562.5,294.7c47.6,23.7,80.3,72.8,80.3,129.6c0,79.9-64.7,144.6-144.6,144.6c-43.7,0-83-19.4-109.5-50.2
		c19.3,9.6,41.2,15,64.3,15c79.9,0,144.6-64.7,144.6-144.6C597.6,353,584.3,320,562.5,294.7L562.5,294.7z"/>
	<path class="st2" d="M331.3,426.1c0-93.2,75.6-168.8,168.9-168.8S669,332.9,669,426.1c0,93.2-75.6,168.9-168.8,168.9
		S331.3,519.4,331.3,426.1z"/>
	<path class="st3" d="M500,229c-108.9,0-197.2,88.3-197.2,197.2S391.1,623.5,500,623.5c108.9,0,197.2-88.3,197.2-197.3
		S608.9,229,500,229z M500,577.9c-83.8,0-151.6-67.9-151.6-151.6S416.2,274.6,500,274.6c83.8,0,151.6,67.9,151.6,151.6
		S583.7,577.9,500,577.9z"/>
	
		<linearGradient id="SVGID_1_" gradientUnits="userSpaceOnUse" x1="-854.9516" y1="19866.75" x2="-693.6153" y2="17840.2188" gradientTransform="matrix(1 0 0 -1 1222.5 18399)">
		<stop  offset="0" style="stop-color:#E5E6E6"/>
		<stop  offset="1" style="stop-color:#A7A8AB"/>
	</linearGradient>
	<path class="st4" d="M500,623.5c89.4,0,167.2-57.9,190.3-143.5h-49c-21.2,57.6-75.7,97.1-141.4,97.1c-7,0-13.8-0.5-20.4-1.3
		c-12.5,2.7-25.5,4.2-38.7,4.2c-25.5,0-54.9-4.4-79.1-13.1C397.3,601.7,445.4,623.5,500,623.5L500,623.5z"/>
	
		<linearGradient id="SVGID_00000091700281584316337400000008306643232001623444_" gradientUnits="userSpaceOnUse" x1="-669.1902" y1="18166.3477" x2="-920.9719" y2="18018.4512" gradientTransform="matrix(1 0 0 -1 1222.5 18399)">
		<stop  offset="0" style="stop-color:#FFFFFF"/>
		<stop  offset="1" style="stop-color:#E5E6E6"/>
	</linearGradient>
	<path style="fill-rule:evenodd;clip-rule:evenodd;fill:url(#SVGID_00000091700281584316337400000008306643232001623444_);" d="
		M311.5,395.1c0,9.2,22.6,16.4,37.8,18.4c6.2-77.8,70.2-137.8,149.7-137.8c18.2,0,35.7,2.5,51.7,8.1l13.3-37.3
		C413.9,191.2,311.5,328.6,311.5,395.1L311.5,395.1z"/>
	
		<linearGradient id="SVGID_00000087370205235662755360000010404702239110461618_" gradientUnits="userSpaceOnUse" x1="-545.7622" y1="17921.4434" x2="-583.869" y2="18098.5391" gradientTransform="matrix(1 0 0 -1 1222.5 18399)">
		<stop  offset="0" style="stop-color:#A7A8AB"/>
		<stop  offset="1" style="stop-color:#E5E6E6"/>
	</linearGradient>
	<path style="fill-rule:evenodd;clip-rule:evenodd;fill:url(#SVGID_00000087370205235662755360000010404702239110461618_);" d="
		M690.3,480c4.5-16.7,6.9-34.5,6.9-53c0-65.4-31.9-124.3-81.8-160.7c13.7,25.5,17.3,56.6,18.2,88.4c11.1,21,17.3,45.1,17.3,70.8
		c0,19.4-3.4,37.7-9.6,54.6L690.3,480L690.3,480z"/>
	<path class="st7" d="M402,542.8c25.6,21.4,59.3,34,97.6,34c84.8,0,151-65.9,151-151.6c0-45.3-19.7-85.1-50.9-112.5
		c32.7,27.4,54.6,66,54.6,112.5c0,85.7-64.2,155.7-149.8,155.7C461.1,580.9,427.9,565.5,402,542.8z"/>
	<defs>
		<filter id="Adobe_OpacityMaskFilter" filterUnits="userSpaceOnUse" x="387.8" y="291.4" width="257.3" height="280.2">
			<feColorMatrix  type="matrix" values="1 0 0 0 0  0 1 0 0 0  0 0 1 0 0  0 0 0 1 0"/>
		</filter>
	</defs>
	
		<mask maskUnits="userSpaceOnUse" x="387.8" y="291.4" width="257.3" height="280.2" id="mask0_169_10726_00000153689780796563773980000000897409627483712133_">
		<path class="st8" d="M562.5,294.7c47.6,23.7,80.3,72.8,80.3,129.6c0,79.9-64.7,144.6-144.6,144.6c-43.7,0-83-19.4-109.5-50.2
			c19.3,9.6,41.2,15,64.3,15c79.9,0,144.6-64.7,144.6-144.6C597.6,353,584.3,320,562.5,294.7L562.5,294.7z"/>
	</mask>
	<g class="st9">
		
			<linearGradient id="SVGID_00000021112986631914343160000002308442624341506993_" gradientUnits="userSpaceOnUse" x1="-755.3958" y1="17828.0996" x2="-677.0206" y2="18048.8906" gradientTransform="matrix(1 0 0 -1 1222.5 18399)">
			<stop  offset="0" style="stop-color:#2D368F"/>
			<stop  offset="1" style="stop-color:#0069A5"/>
		</linearGradient>
		<path style="fill:url(#SVGID_00000021112986631914343160000002308442624341506993_);" d="M645.1,295.8l-252.2-4.4l-5.1,275.8
			l252.4,4.4L645.1,295.8z"/>
	</g>
	<defs>
		
			<filter id="Adobe_OpacityMaskFilter_00000031902894629380022710000010193177911156281790_" filterUnits="userSpaceOnUse" x="348.9" y="265.4" width="211.1" height="235.1">
			<feColorMatrix  type="matrix" values="1 0 0 0 0  0 1 0 0 0  0 0 1 0 0  0 0 0 1 0"/>
		</filter>
	</defs>
	
		<mask maskUnits="userSpaceOnUse" x="348.9" y="265.4" width="211.1" height="235.1" id="mask1_169_10726_00000181782748199436454160000007774936155619330235_">
		<path style="fill:#FFFFFF;filter:url(#Adobe_OpacityMaskFilter_00000031902894629380022710000010193177911156281790_);" d="
			M501.9,284.2c-79.9,0-144.6,61.7-144.6,141.6c0,43.7,35.1,68.3,35.1,45.2c0-79.9,64.7-144.6,144.6-144.6
			C573.1,326.4,558.6,284.2,501.9,284.2z"/>
	</mask>
	<g class="st12">
		
			<linearGradient id="SVGID_00000045584469170462694330000000813422734840129692_" gradientUnits="userSpaceOnUse" x1="-746.8232" y1="19872.2285" x2="-768.486" y2="17974.252" gradientTransform="matrix(1 0 0 -1 1222.5 18399)">
			<stop  offset="0" style="stop-color:#EEF8FD"/>
			<stop  offset="1" style="stop-color:#0069A5"/>
		</linearGradient>
		<path style="fill:url(#SVGID_00000045584469170462694330000000813422734840129692_);" d="M560,290.9l-181.6-25.5L348.9,475
			l181.5,25.5L560,290.9z"/>
	</g>
	<path class="st14" d="M583,299.3c-28-18.1-62.6-26.8-100.6-22.1c-84.2,10.3-141.7,83.8-131.3,168.9c5.5,44.9,30,82.6,64.4,106
		c-35.8-23.2-63-54.8-69.2-106c-10.5-87.3,50.1-161.6,134.2-171.9C519.8,269.4,554.4,279.9,583,299.3L583,299.3z"/>
	<path class="st7" d="M501,306.7c38.8,0,68.7,25.8,68.7,65c0,44.8-34,56.6-79.3,94.4l-3.1,2.6h82.9v43.2H421.9V503
		c-0.1-69.3,103-87.8,103-128.3c0-15.9-14.2-26.1-25.4-26.1c-15.9,0-26.4,12.3-30.1,30h-43C426.4,378.5,430.5,306.6,501,306.7
		L501,306.7z"/>
	<defs>
		
			<filter id="Adobe_OpacityMaskFilter_00000150073652861048778380000013766175397269362567_" filterUnits="userSpaceOnUse" x="421.8" y="275.2" width="152" height="161.3">
			<feColorMatrix  type="matrix" values="1 0 0 0 0  0 1 0 0 0  0 0 1 0 0  0 0 0 1 0"/>
		</filter>
	</defs>
	
		<mask maskUnits="userSpaceOnUse" x="421.8" y="275.2" width="152" height="161.3" id="mask2_169_10726_00000117667077016611757760000016803558775923608244_">
		<path style="fill:#FFFFFF;filter:url(#Adobe_OpacityMaskFilter_00000150073652861048778380000013766175397269362567_);" d="
			M469.4,378.5h-43c0,0,4-71.9,74.6-71.9c0,0,45.1,0,61.7,34.5c0,0-26.4-1.8-54.2,9.3C508.5,350.4,479.3,338.4,469.4,378.5
			L469.4,378.5z"/>
	</mask>
	<g class="st16">
		
			<linearGradient id="SVGID_00000036972532790258087680000011802737571808221578_" gradientUnits="userSpaceOnUse" x1="-800.7203" y1="18043.1113" x2="-648.7134" y2="18043.1113" gradientTransform="matrix(1 0 0 -1 1222.5 18399)">
			<stop  offset="0" style="stop-color:#E5E6E6"/>
			<stop  offset="1" style="stop-color:#F4F5F5"/>
		</linearGradient>
		<path style="fill:url(#SVGID_00000036972532790258087680000011802737571808221578_);" d="M571,275.2l-149.3,2.6l2.8,158.6
			l149.2-2.6L571,275.2z"/>
	</g>
	<defs>
		
			<filter id="Adobe_OpacityMaskFilter_00000150797283657421705060000009623146966351294139_" filterUnits="userSpaceOnUse" x="329.4" y="334.1" width="299.2" height="292.9">
			<feColorMatrix  type="matrix" values="1 0 0 0 0  0 1 0 0 0  0 0 1 0 0  0 0 0 1 0"/>
		</filter>
	</defs>
	
		<mask maskUnits="userSpaceOnUse" x="329.4" y="334.1" width="299.2" height="292.9" id="mask3_169_10726_00000031202773786044063940000016693353973607151795_">
		<path style="fill:#FFFFFF;filter:url(#Adobe_OpacityMaskFilter_00000150797283657421705060000009623146966351294139_);" d="
			M536.4,468.7c0,0-31.5,28.4-80.1,43.2h114v-43.2H536.4z"/>
	</mask>
	<g class="st19">
		
			<linearGradient id="SVGID_00000088849324580454878180000011248173681826048138_" gradientUnits="userSpaceOnUse" x1="-795.9621" y1="17834.5352" x2="-687.6491" y2="18007.8887" gradientTransform="matrix(1 0 0 -1 1222.5 18399)">
			<stop  offset="0" style="stop-color:#E8E7E7"/>
			<stop  offset="1" style="stop-color:#E3E4E5"/>
		</linearGradient>
		<path style="fill:url(#SVGID_00000088849324580454878180000011248173681826048138_);" d="M628.6,443.5L431.1,334.1l-67.8,122.3
			L346.4,487l-17,30.6L526.9,627L628.6,443.5z"/>
	</g>
	<path class="st21" d="M355.9,684.6c-0.8-0.4-1.3-1-0.6-2.1c0.5-0.6,1.3-0.5,1.3-0.5H376c0,0,3.8,0.1,6,1.7c2.2,1.4,3.4,3.1,4,4.9
		c0.6,1.9,0.5,4.9,0.5,4.9l-2.2,26.1l-3.1,35.1c0,0-0.4,3.5,1,5.8c1.2,2.1,3.4,3.2,4.9,3.8c1.6,0.5,5.6,1.3,5.6,1.3s1,0.4,1,1
		c0,0.6-0.1,1-0.9,1.6c-0.8,0.4-1.4,0.4-1.4,0.4h-20.4c0,0-3.2,0.1-6.5-2.9c-2.7-2.6-2.7-6.8-2.7-6.8v-4l5.6-59c0,0,0-3.5-0.8-5.3
		c-1-2.1-1.7-2.9-4-4c-1.8-0.9-6.6-2.3-6.6-2.3"/>
	<path class="st21" d="M396.3,684.6c-0.8-0.4-1.3-1-0.6-2.1c0.5-0.6,1.3-0.5,1.3-0.5h19.5c0,0,3.8,0.1,6,1.7c2.2,1.4,3.4,3.1,4,4.9
		c0.6,1.9,0.4,4.9,0.4,4.9l-2.2,26.1l-3.1,35.1c0,0-0.4,3.5,1,5.8c1.2,2.1,3.4,3.2,4.9,3.8c1.6,0.5,5.6,1.4,5.6,1.4s1,0.4,1,1
		c0,0.6-0.3,1-1,1.4c-0.8,0.4-1.3,0.5-1.3,0.5h-20.4c0,0-3.2,0.1-6.5-2.9c-2.7-2.6-2.7-6.8-2.7-6.8v-4l5.6-59c0,0-0.1-3.1-1-4.9
		c-1-2.1-2.2-3.5-3.9-4.4c-1.8-1-6.6-2.3-6.6-2.3"/>
	<path class="st21" d="M435.8,684.5c-0.8-0.4-1.3-1-0.6-2.1c0.5-0.6,1.3-0.5,1.3-0.5h19.5c0,0,3.8,0.1,6,1.7c2.2,1.4,3.4,3.1,4,4.9
		c0.6,1.9,0.5,4.9,0.5,4.9l-2.2,26.1l-3.1,35.1c0,0-0.4,3.5,1,5.8c1.2,2.1,3.1,3.2,4.7,3.9c1.6,0.5,5.8,1.3,5.8,1.3s1,0.4,1,1.2
		s-0.1,1.2-0.9,1.6c-0.8,0.4-1.4,0.4-1.4,0.4H451c0,0-3.2,0-6.5-2.9c-2.7-2.6-2.7-6.8-2.7-6.8v-4l5.6-59c0,0-0.1-3.1-1-4.9
		c-1-2.1-2.2-3.5-3.9-4.4C440.6,685.8,435.8,684.5,435.8,684.5z"/>
	<path class="st21" d="M476.2,658.9c0,0-0.9-1-0.6-1.8c0.4-1,1.8-1,1.8-1h19.7c0,0,5.3,0,8.3,2.5c2.9,2.6,3.4,4.7,3.5,6.5
		c0,1.9-1.6,22.9-1.6,22.9s-0.1,1.3,0.1,1.3s3.1-1.4,5.5-2.5c2.3-1,8.3-2.7,13.4-2.3c5.2,0.4,12.1,1,19.9,6.5
		c7.8,5.6,10.4,11.7,12.5,17.9c2.1,6.2,1.9,14,1.9,14s0.1,8.1-2.2,16.4c-2.3,8.3-6.2,13.4-6.2,13.4s-2.6,4.4-8.3,9.1
		c-5.7,4.7-12.6,7-12.6,7s-7,2.3-14.5,2.3c-7.7,0-13.4-1.7-18.8-4.2c-6.2-2.9-10.1-8.3-10.1-8.3s-4-5.3-4.5-7.4
		c-0.5-2.1-0.4-3,0-3.5c0.4-0.4,1-0.1,1.3,0c0.3,0.3,3.1,3,4.5,4c1.4,1,3.8,3.1,7.9,4.7c4.2,1.6,8.1,2.6,12.5,3
		c4.4,0.4,10.7-0.6,15.2-3c4.4-2.3,9.1-6.9,10.8-9.4s4.4-6.1,6.4-14.7c1.9-8.6,1.3-13.4,1.3-13.4s0-6.9-3.8-15.2
		c-4.2-9.4-13.1-11.3-13.1-11.3s-4-1-8.2-0.4c-3.6,0.5-7.9,3.2-9.5,5.6c-1.7,2.3-1.8,4-2.2,7.7c-0.3,1.7-2.7,26.6-2.7,26.6
		s-0.3,5.3,0,7.3c0.4,1.9,1.4,4.9,2.7,6.2c1.3,1.2,2.3,1.3,2.2,2.1c0,0.8-1,1.7-2.3,1.9s-4.2,0.4-7.8-0.5c-3.6-0.9-7.4-2.9-10.4-7
		c-3-4.3-4-7.8-4.4-12.3c-0.4-4.5,2.3-32.2,2.3-32.2l2.9-28.6c0,0,0-3.5-2.7-6c-2.6-2.6-6.8-3.2-6.8-3.2s-2.2-0.1-2.9-0.8"/>
	<path class="st21" d="M622.1,689c0,0,4.3-0.8,7.8-0.6c3.5,0.1,7,0.9,9,1.7c1.9,0.8,3.5,1.3,4.2,1.7c0.6,0.3,1.8,0.3,1.9-0.8
		c0.1-1-0.8-1.8-2.2-2.9c-1.4-1-7.7-4.9-12.9-6.2c-5.3-1.3-9.5-1.6-14.8-1.3c-5.3,0.3-15.6,2.7-21.7,6.4
		c-6.1,3.6-14.3,11.2-16.5,15.2c-2.5,4.4-5.6,9.5-6.5,20c-0.6,8.3,0.4,16.5,3.5,22.6c3.8,7.3,9.6,14.3,16,17.9
		c6.4,3.6,15.5,7.1,25.1,7c9.6-0.1,19.5-4,24.3-7.9c4.8-3.9,4.9-4.4,5.2-5.5c0.4-1.6-0.5-1.9-1.3-1.9s-1.3,0.4-3.5,1.6
		c-2.2,1-6.5,2.5-9.7,2.9c-3.1,0.4-8.7,0.9-15.5-1.3s-12.5-7.5-12.5-7.5s-5.3-5.3-7.7-11.4c-2.2-6.2-2.1-14.7-2.1-14.7
		s0.1-10.4,4.9-17.5c4.8-7.1,8.2-9.9,13.6-13.1c5.3-3.1,11-4.3,11-4.3"/>
</g>
</svg>
